<?xml version="1.0" encoding="UTF-8"?>
<svg version="1.1" xmlns="http://www.w3.org/2000/svg" width="712" height="716">
<path d="M0 0 C234.96 0 469.92 0 712 0 C712 236.28 712 472.56 712 716 C477.04 716 242.08 716 0 716 C0 479.72 0 243.44 0 0 Z " fill="#FEFEFE" transform="translate(0,0)"/>
<path d="M0 0 C0 125.07 0 250.14 0 379 C-15.54452424 385.2178097 -31.09211738 391.4132611 -46.6875 397.5 C-48.66996303 398.27463427 -50.65238379 399.04937671 -52.63476562 399.82421875 C-56.72688985 401.42358933 -60.81918991 403.02250878 -64.91162109 404.62109375 C-73.65793224 408.03799457 -82.40199567 411.46063772 -91.14614868 414.88305664 C-95.930666 416.75562611 -100.71534128 418.62779187 -105.5 420.5 C-107.41666742 421.24999808 -109.33333408 421.99999808 -111.25 422.75 C-115.08333333 424.25 -118.91666667 425.75 -122.75 427.25 C-123.69861908 427.62119965 -124.64723816 427.99239929 -125.62460327 428.37484741 C-127.54258997 429.12536217 -129.46057906 429.87587079 -131.37857056 430.62637329 C-136.15006047 432.49344724 -140.92150948 434.36062554 -145.69287109 436.22802734 C-154.55780718 439.6974354 -163.42312215 443.16586473 -172.28985596 446.63067627 C-176.41149227 448.24134091 -180.53290223 449.85258429 -184.65429688 451.46386719 C-186.5913593 452.22098988 -188.52852869 452.97783898 -190.46582031 453.734375 C-193.17801954 454.793543 -195.88987726 455.85357934 -198.6015625 456.9140625 C-199.8897287 457.41743134 -199.8897287 457.41743134 -201.20391846 457.93096924 C-205.71414299 459.69755469 -210.21501959 461.48494611 -214.70605469 463.29980469 C-215.62953705 463.67245453 -216.55301941 464.04510437 -217.50448608 464.42904663 C-219.27140902 465.14352623 -221.03711557 465.86102349 -222.80142212 466.5819397 C-223.58673309 466.89956268 -224.37204407 467.21718567 -225.18115234 467.54443359 C-225.87252289 467.8262851 -226.56389343 468.1081366 -227.2762146 468.39852905 C-229 469 -229 469 -231 469 C-231 343.6 -231 218.2 -231 89 C-206.745 79.595 -206.745 79.595 -182 70 C-170.5670473 65.53278833 -170.5670473 65.53278833 -159.14047241 61.04949951 C-155.00887924 59.42489753 -150.87628214 57.80285479 -146.74378967 56.18054199 C-144.60665145 55.34154042 -142.46955549 54.50243118 -140.33250427 53.66320801 C-129.45428513 49.39165516 -118.57130037 45.13230808 -107.6875 40.875 C-106.75066376 40.50853363 -105.81382751 40.14206726 -104.84860229 39.76449585 C-101.0797622 38.29023041 -97.31091955 36.8159715 -93.54203796 35.34181213 C-85.76083858 32.29811187 -77.98063044 29.25188351 -70.20062256 26.20513916 C-62.54288005 23.20654272 -54.88362921 20.21181527 -47.22393799 17.21820068 C-41.76435244 15.08362679 -36.30745703 12.94234818 -30.85272217 10.79541016 C-27.46774567 9.46394482 -24.08123965 8.13640251 -20.69439697 6.80969238 C-19.12105083 6.19228757 -17.54840347 5.57309872 -15.97650146 4.95202637 C-13.83637061 4.10663557 -11.69391515 3.26743 -9.55078125 2.4296875 C-7.75120972 1.72175049 -7.75120972 1.72175049 -5.9152832 0.99951172 C-3 0 -3 0 0 0 Z " fill="#982B81" transform="translate(639,143)"/>
<path d="M0 0 C11.24957323 3.37487197 11.24957323 3.37487197 15.38720703 5.01098633 C16.32909378 5.38108322 17.27098053 5.75118011 18.2414093 6.13249207 C19.23682236 6.52834 20.23223541 6.92418793 21.2578125 7.33203125 C22.87172127 7.96804008 22.87172127 7.96804008 24.51823425 8.61689758 C28.05530152 10.01171766 31.59012005 11.41214702 35.125 12.8125 C37.62767926 13.80039917 40.13049583 14.78794151 42.63354492 15.77490234 C47.17905546 17.56761258 51.72406048 19.36159277 56.26839733 21.15727615 C67.78369814 25.70732288 79.30812406 30.234085 90.83334351 34.75894165 C94.33218038 36.13272732 97.83079722 37.50707187 101.3293457 38.8815918 C115.769961 44.55491784 130.21247018 50.22340131 144.65673828 55.88742065 C147.78167996 57.11291346 150.90647773 58.33877257 154.03125 59.56469727 C163.91621062 63.44220046 173.80291397 67.31514231 183.69404602 71.17687988 C188.42707579 73.02507253 193.15929735 74.87532934 197.89144897 76.72576904 C200.15148052 77.60884682 202.41191054 78.49090557 204.67276001 79.37188721 C207.79976511 80.59043948 210.9254053 81.81243273 214.05078125 83.03515625 C214.97330688 83.39359116 215.89583252 83.75202606 216.84631348 84.12132263 C217.70438599 84.45777298 218.5624585 84.79422333 219.4465332 85.14086914 C220.18539261 85.42918106 220.92425201 85.71749298 221.6855011 86.01454163 C224.5133001 87.21855093 227.2510241 88.62551205 230 90 C230 215.07 230 340.14 230 469 C223.31006472 466.99301941 216.93616123 464.9179777 210.4921875 462.32421875 C209.59440582 461.96702759 208.69662415 461.60983643 207.77163696 461.24182129 C205.82677372 460.46757706 203.88265373 459.69146372 201.93920898 458.91366577 C197.69403797 457.21492935 193.445048 455.52584268 189.19622803 453.83625793 C186.93551923 452.93726124 184.67498347 452.03782929 182.41461182 451.13798523 C169.79190468 446.11502101 157.146611 441.14989977 144.5 436.1875 C142.13914313 435.26070419 139.77830339 434.33386473 137.41748047 433.40698242 C132.65472563 431.53717178 127.89185321 429.66766106 123.12890625 427.79833984 C116.07498365 425.02968728 109.02175454 422.25927159 101.96875 419.48828125 C100.81336731 419.03436508 99.65798462 418.58044891 98.46759033 418.11277771 C92.68368001 415.84037584 86.89988322 413.56768538 81.11621094 411.29467773 C70.1345592 406.97919491 59.15186585 402.66640974 48.16589355 398.36193848 C43.58652074 396.56764739 39.0076201 394.77215275 34.42882538 392.97638702 C31.29572275 391.74771957 28.16226379 390.51997939 25.02832031 389.29345703 C21.57551605 387.94209605 18.12360361 386.58848065 14.671875 385.234375 C13.64551941 384.83337585 12.61916382 384.43237671 11.56170654 384.01922607 C10.61934143 383.64904358 9.67697632 383.27886108 8.70605469 382.89746094 C7.48048859 382.41741608 7.48048859 382.41741608 6.23016357 381.92767334 C4.11155602 381.04640357 2.05234195 380.02617098 0 379 C0 253.93 0 128.86 0 0 Z " fill="#982B81" transform="translate(70,143)"/>
<path d="M0 0 C25.74 0 51.48 0 78 0 C78 127.05 78 254.1 78 385 C52.26 385 26.52 385 0 385 C0 257.95 0 130.9 0 0 Z " fill="#982B81" transform="translate(315,242)"/>
<path d="M0 0 C0.7100116 0.28208313 1.42002319 0.56416626 2.15155029 0.85479736 C3.70091145 1.47082246 5.2495171 2.08875035 6.79745483 2.70834351 C10.19035081 4.06616789 13.58705548 5.41434135 16.9835968 6.76301575 C18.79829447 7.48359785 20.61281514 8.20462584 22.4271698 8.92607117 C31.6602559 12.59558629 40.91181472 16.21732126 50.16622925 19.8326416 C53.02202705 20.94848658 55.87740914 22.06538885 58.73266602 23.18261719 C68.16531069 26.87321563 77.59943588 30.5599714 87.03614807 34.24015808 C91.63810464 36.03558531 96.23901642 37.83367982 100.8397522 39.63223267 C103.0407661 40.49196019 105.24222953 41.3505379 107.44418335 42.20785522 C127.22853941 49.91158089 127.22853941 49.91158089 136.94140625 54.0546875 C138.14796875 54.56813721 139.35453125 55.08158691 140.59765625 55.6105957 C145.85580443 58.29510688 149.80496192 61.98067861 153.81640625 66.25390625 C154.65365234 67.06408203 154.65365234 67.06408203 155.5078125 67.890625 C167.53094356 80.35324388 171.31417278 98.59817832 171.02124023 115.26049805 C170.96697744 117.25873057 170.8938109 119.25643631 170.81640625 121.25390625 C164.33391224 119.40014033 158.0428856 117.29306647 151.78125 114.796875 C150.93036804 114.46178925 150.07948608 114.12670349 149.20281982 113.78146362 C147.35650724 113.05407253 145.51087597 112.32495016 143.66586304 111.5942688 C138.54778322 109.56798785 133.42402355 107.55615315 128.30078125 105.54296875 C127.2135527 105.11542801 126.12632416 104.68788727 125.00614929 104.24739075 C112.19376731 99.21423202 99.34906576 94.26516748 86.50390625 89.31640625 C81.6431317 87.44296112 76.78247891 85.56920029 71.921875 83.6953125 C70.72952744 83.23567612 69.53717987 82.77603973 68.30870056 82.30247498 C55.65233872 77.42212298 43.00611642 72.51572899 30.3609314 67.60650635 C18.87353476 63.14714083 7.38248741 58.6974654 -4.11628723 54.26751328 C-6.02854691 53.53078646 -7.94073514 52.79387448 -9.85290527 52.05691528 C-15.97212532 49.69868506 -22.09195504 47.34205646 -28.21289062 44.98828125 C-43.25242011 39.19782891 -58.23644919 33.27883236 -73.18359375 27.25390625 C-65.02735869 21.00956285 -65.02735869 21.00956285 -60.77740479 21.57278442 C-58.31231858 22.22010375 -55.99627074 22.98302395 -53.62011719 23.90185547 C-52.73557358 24.24164429 -51.85102997 24.58143311 -50.93968201 24.93151855 C-49.98376663 25.30345337 -49.02785126 25.67538818 -48.04296875 26.05859375 C-46.52359459 26.64429138 -46.52359459 26.64429138 -44.973526 27.24182129 C-41.6253714 28.53364282 -38.27948776 29.83124207 -34.93359375 31.12890625 C-32.5752409 32.04020496 -30.21675916 32.95117016 -27.8581543 33.86181641 C-20.63117052 36.65369087 -13.40720143 39.4533107 -6.18359375 42.25390625 C-4.07310021 43.07166822 -1.96258679 43.8893789 0.14794922 44.70703125 C8.1063311 47.79058449 16.06412897 50.87563719 24.02050781 53.96435547 C39.77805656 60.08100809 55.5457261 66.17119904 71.31640625 72.25390625 C97.16185618 82.22272096 122.99267211 92.22898493 148.81640625 102.25390625 C149.14640625 101.92390625 149.47640625 101.59390625 149.81640625 101.25390625 C133.3198329 82.79345512 107.14231497 75.92522333 84.75610352 67.24169922 C68.96939689 61.11569165 53.22572959 54.883684 37.48923874 48.6301651 C34.08742855 47.27836843 30.6854216 45.9270671 27.28344727 44.57568359 C23.27229522 42.98225968 19.26117143 41.38876474 15.25013733 39.79504395 C4.04919206 35.34478865 -7.15501324 30.90280259 -18.362854 26.46994019 C-20.17770566 25.75206758 -21.99244671 25.03391526 -23.80706787 24.31546021 C-26.27474014 23.33849254 -28.74277852 22.36245604 -31.2109375 21.38671875 C-31.91005753 21.10977676 -32.60917755 20.83283478 -33.32948303 20.54750061 C-37.92882958 18.7311438 -42.54953308 16.97984588 -47.18359375 15.25390625 C-47.18359375 14.59390625 -47.18359375 13.93390625 -47.18359375 13.25390625 C-46.03251936 12.54060749 -44.8614248 11.85959887 -43.68359375 11.19140625 C-43.03390625 10.80855469 -42.38421875 10.42570312 -41.71484375 10.03125 C-34.8335362 7.91800895 -27.73459843 11.32674522 -21.4140625 13.91015625 C-20.47731689 14.28407501 -19.54057129 14.65799377 -18.57543945 15.04324341 C-15.50379213 16.27151794 -12.43755863 17.51275691 -9.37109375 18.75390625 C-7.21109196 19.61997264 -5.05068541 20.48503019 -2.88989258 21.34912109 C1.53723521 23.12041506 5.96260291 24.89600188 10.38671875 26.67480469 C18.91256295 30.09933302 27.45816944 33.47338457 36.00546265 36.84393311 C39.51799752 38.22966111 43.02933743 39.61840316 46.54069519 41.0071106 C54.72837921 44.245182 62.91825888 47.4776527 71.109375 50.70703125 C79.26828732 53.92395143 87.42417293 57.14840756 95.57601929 60.38319397 C99.41163282 61.9052029 103.24797363 63.42517584 107.08837891 64.93505859 C126.87367145 72.71830054 142.69587341 80.13337341 157.81640625 95.25390625 C155.12005162 83.41562546 149.04011801 73.04935197 138.81640625 66.25390625 C136.09093791 64.8998631 133.29466409 63.74802311 130.4765625 62.6015625 C129.23595818 62.08841995 129.23595818 62.08841995 127.97029114 61.56491089 C117.36744622 57.20466151 106.68426869 53.04451116 96.00390625 48.87890625 C93.75902085 48.00113485 91.514231 47.12311908 89.26953125 46.24487305 C83.55221696 44.0085356 77.83386688 41.77486098 72.11517334 39.54205322 C67.00077176 37.54491286 61.88703843 35.54606435 56.7734375 33.546875 C55.81517563 33.17224121 54.85691376 32.79760742 53.86961365 32.41162109 C45.42411004 29.10936509 36.98016891 25.80312837 28.53710938 22.49462891 C24.58343422 20.94549964 20.62888743 19.3986192 16.67382812 17.85302734 C11.60167062 15.87047954 6.53168088 13.8824781 1.46313477 11.89071655 C-0.45427231 11.1382373 -2.37239518 10.38757919 -4.29125977 9.63882446 C-6.92918763 8.60913608 -9.56448357 7.57298142 -12.19921875 6.53515625 C-12.98327087 6.23083176 -13.767323 5.92650726 -14.57513428 5.61296082 C-19.95539041 3.48210959 -19.95539041 3.48210959 -22.18359375 1.25390625 C-20.63066615 0.38245756 -19.06573939 -0.46763032 -17.49609375 -1.30859375 C-16.62597656 -1.78425781 -15.75585938 -2.25992188 -14.859375 -2.75 C-9.67939509 -4.67831369 -4.88930357 -1.97098976 0 0 Z " fill="#9A3084" transform="translate(176.18359375,103.74609375)"/>
<path d="M0 0 C1.11375 0.53625 2.2275 1.0725 3.375 1.625 C4.24125 2.07875 5.1075 2.5325 6 3 C3.37862483 5.09210564 0.98678155 6.57103575 -2.14282227 7.76733398 C-3.37003494 8.24195572 -3.37003494 8.24195572 -4.62203979 8.72616577 C-5.95575119 9.23103012 -5.95575119 9.23103012 -7.31640625 9.74609375 C-8.73036179 10.29035507 -8.73036179 10.29035507 -10.17288208 10.84561157 C-12.22222504 11.63371163 -14.27266769 12.41895663 -16.32406616 13.20169067 C-20.74599267 14.8891292 -25.16251518 16.5904998 -29.57936096 18.29118347 C-31.89439778 19.18249588 -34.20969966 20.07312011 -36.5252533 20.96308899 C-48.60136085 25.6068832 -60.64638623 30.32885412 -72.6875 35.0625 C-76.91133701 36.72296518 -81.13525296 38.38322879 -85.359375 40.04296875 C-86.39847015 40.45130447 -87.43756531 40.8596402 -88.50814819 41.28034973 C-96.00325586 44.22299692 -103.50776456 47.14084924 -111.015625 50.05078125 C-114.15310659 51.2693179 -117.29040783 52.48831762 -120.42764282 53.70748901 C-122.40288729 54.47367807 -124.3789174 55.23784544 -126.35580444 55.99978638 C-154.3606278 66.66996976 -154.3606278 66.66996976 -172 90 C-172.77776149 92.32079486 -173.39990592 94.62386991 -174 97 C-173.52433594 96.46632813 -173.04867188 95.93265625 -172.55859375 95.3828125 C-163.72990544 85.98505589 -153.42079006 79.24924124 -141.6328125 74.13671875 C-140.85407272 73.79516754 -140.07533295 73.45361633 -139.272995 73.10171509 C-131.68339775 69.80482428 -123.99439888 66.78222686 -116.26983643 63.81848145 C-111.82512936 62.11195946 -107.38714177 60.38813531 -102.94921875 58.6640625 C-101.99732666 58.29438354 -101.04543457 57.92470459 -100.06469727 57.54382324 C-88.04988497 52.86686639 -76.08982535 48.05301284 -64.125 43.25 C-42.96140449 34.75696731 -21.75609324 26.37618871 -0.51416016 18.08105469 C1.03459557 17.4758474 1.03459557 17.4758474 2.61463928 16.8584137 C4.54333812 16.10497837 6.47238618 15.35243616 8.40184021 14.60093689 C9.24738968 14.27074051 10.09293915 13.94054413 10.96411133 13.6003418 C11.69978836 13.31362106 12.43546539 13.02690033 13.19343567 12.73149109 C15.0548896 12.00540357 15.0548896 12.00540357 17 11 C22.61197375 10.33190789 26.26420902 12.30757061 31 15 C28.71171931 17.59029822 26.64861908 18.75279053 23.43920898 19.99511719 C22.50318344 20.36202164 21.5671579 20.72892609 20.60276794 21.10694885 C19.57756546 21.49962448 18.55236298 21.89230011 17.49609375 22.296875 C16.41558243 22.71819199 15.33507111 23.13950897 14.22181702 23.57359314 C11.86894598 24.49004397 9.51466867 25.40289054 7.15917969 26.31259155 C3.38853592 27.76891119 -0.37861372 29.23391082 -4.14453125 30.70239258 C-5.43960232 31.20729935 -6.73467681 31.71219736 -8.02975464 32.21708679 C-8.67771877 32.46971472 -9.32568291 32.72234264 -9.99328232 32.98262596 C-11.99010309 33.76070456 -13.9873247 34.53774606 -15.98464966 35.31452942 C-29.84857596 40.70810928 -43.67603262 46.19232415 -57.5 51.6875 C-62.30973094 53.59937361 -67.11957607 55.51095884 -71.9296875 57.421875 C-73.10134964 57.8874028 -74.27301178 58.3529306 -75.48017883 58.83256531 C-83.56390975 62.04128775 -91.65843959 65.22162482 -99.7578125 68.390625 C-103.01507991 69.66827527 -106.27211219 70.94652285 -109.52905273 72.2250061 C-111.55192159 73.01724057 -113.57580738 73.80688465 -115.60083008 74.59359741 C-124.85061191 78.18743233 -134.02438819 81.83026697 -142.91796875 86.24609375 C-143.5432547 86.5559874 -144.16854065 86.86588104 -144.81277466 87.18516541 C-153.53686221 91.65172945 -160.90348701 97.33267375 -167 105 C-166.1030542 104.62584961 -166.1030542 104.62584961 -165.18798828 104.24414062 C-150.34368136 98.07493417 -135.40626342 92.19639282 -120.375 86.5 C-105.037988 80.68700772 -89.72556865 74.81559208 -74.4375 68.875 C-70.31778123 67.27455185 -66.19799564 65.67427591 -62.078125 64.07421875 C-61.03018265 63.6672023 -59.9822403 63.26018585 -58.90254211 62.84083557 C-50.76685932 59.68244645 -42.62658159 56.53606067 -34.484375 53.39453125 C-33.26236893 52.92298111 -32.04036285 52.45143097 -30.78132629 51.96559143 C-24.66274615 49.60509008 -18.54330246 47.24685785 -12.42260742 44.8918457 C-1.78439647 40.79603961 8.84462712 36.68263144 19.43359375 32.4609375 C21.13298096 31.78667446 22.83244092 31.11259474 24.53198242 30.4387207 C27.58089359 29.22968508 30.62280191 28.00500818 33.66137695 26.77026367 C34.98753376 26.24332504 36.31393286 25.7169956 37.640625 25.19140625 C38.75985352 24.73967041 39.87908203 24.28793457 41.03222656 23.82250977 C45.80176305 22.50064662 49.06287645 23.82964695 53.3125 26.0625 C54.35857422 26.60583984 54.35857422 26.60583984 55.42578125 27.16015625 C55.94527344 27.43730469 56.46476563 27.71445313 57 28 C54.96863496 30.03136504 53.86105288 30.5858241 51.23608398 31.57788086 C50.05910698 32.02738098 50.05910698 32.02738098 48.85835266 32.48596191 C47.99630722 32.80899292 47.13426178 33.13202393 46.24609375 33.46484375 C45.33977707 33.80954712 44.43346039 34.15425049 43.49967957 34.50939941 C41.52346993 35.2604389 39.54634024 36.00906077 37.56842041 36.75558472 C32.19381506 38.78448592 26.82607005 40.83142472 21.45703125 42.875 C20.34173035 43.29889511 19.22642944 43.72279022 18.07733154 44.15953064 C6.57333878 48.53442478 -4.90268667 52.98033053 -16.375 57.4375 C-18.42649326 58.23393929 -20.47800705 59.0303257 -22.52954102 59.82666016 C-26.64584798 61.42467378 -30.76196526 63.02317463 -34.87792969 64.62207031 C-44.9174427 68.52191374 -54.9584593 72.4178809 -65 76.3125 C-65.99422974 76.69812103 -66.98845947 77.08374207 -68.01281738 77.48104858 C-92.11503656 86.82808142 -116.23199719 96.13689117 -140.35253906 105.43652344 C-145.67400748 107.48832523 -150.99472663 109.54206076 -156.31515503 111.59655762 C-160.02249501 113.02780661 -163.73036717 114.45767234 -167.43841553 115.88708496 C-169.13284862 116.54056954 -170.82706615 117.19461336 -172.52105713 117.84924316 C-174.80511166 118.73177235 -177.08994087 119.61226339 -179.375 120.4921875 C-180.37513626 120.87946518 -180.37513626 120.87946518 -181.39547729 121.27456665 C-185.88580078 123 -185.88580078 123 -187 123 C-187.90603113 101.25525289 -183.64844564 82.82060158 -168.6640625 66.34375 C-159.19807837 58.01590472 -149.00401731 53.86829648 -137.375 49.4375 C-135.48838897 48.70688646 -133.60233637 47.97482956 -131.71679688 47.24145508 C-127.64255332 45.65832658 -123.56577746 44.08196508 -119.48730469 42.50976562 C-110.49046571 39.03607999 -101.51989241 35.49582264 -92.546875 31.96118164 C-87.84332453 30.10840759 -83.13757056 28.26141451 -78.4296875 26.41967773 C-67.58442587 22.17526983 -56.74843704 17.91235114 -45.94903564 13.55232239 C-41.22259813 11.64546857 -36.49082453 9.75207249 -31.75854492 7.85977173 C-29.51799866 6.95934584 -27.28014704 6.05218315 -25.04516602 5.13803101 C-21.96111849 3.87710351 -18.86869356 2.63935277 -15.7734375 1.40625 C-14.86673309 1.02833817 -13.96002869 0.65042633 -13.02584839 0.26106262 C-7.97597961 -1.72050432 -5.10129346 -2.57890742 0 0 Z " fill="#9A3084" transform="translate(548,102)"/>
</svg>
