<?xml version="1.0" standalone="no"?>
<!DOCTYPE svg PUBLIC "-//W3C//DTD SVG 20010904//EN"
 "http://www.w3.org/TR/2001/REC-SVG-20010904/DTD/svg10.dtd">
<svg version="1.0" xmlns="http://www.w3.org/2000/svg"
 width="300.000000pt" height="139.000000pt" viewBox="0 0 300.000000 139.000000"
 preserveAspectRatio="xMidYMid meet">
<metadata>
Created by potrace 1.10, written by Peter Selinger 2001-2011
</metadata>
<g transform="translate(0.000000,139.000000) scale(0.100000,-0.100000)"
fill="#000000" stroke="none">
<path d="M845 1240 c-360 -4 -486 -8 -502 -18 -12 -7 -35 -29 -50 -49 -24 -31
-28 -46 -28 -98 0 -51 4 -67 27 -97 53 -69 42 -68 572 -68 l476 0 0 25 0 25
-470 0 c-517 0 -514 0 -545 60 -19 37 -19 73 0 110 32 62 13 60 537 60 l478 0
0 30 c0 17 -3 29 -7 28 -5 -2 -224 -5 -488 -8z"/>
<path d="M430 1140 c0 -7 152 -10 435 -10 283 0 435 3 435 10 0 7 -152 10
-435 10 -283 0 -435 -3 -435 -10z"/>
<path d="M1908 1139 c-37 -21 -11 -74 33 -67 35 5 47 33 25 57 -21 23 -33 25
-58 10z"/>
<path d="M1560 1111 c0 -5 9 -11 20 -14 26 -7 25 -26 -8 -157 -24 -92 -30
-105 -51 -110 -14 -3 -26 -10 -28 -15 -3 -9 57 -10 252 -6 40 1 41 2 53 47 15
54 9 68 -15 34 -36 -51 -51 -60 -103 -60 -33 0 -50 4 -50 13 0 6 12 65 27 130
25 113 28 118 55 124 57 11 26 23 -62 23 -49 0 -90 -4 -90 -9z"/>
<path d="M430 1070 c0 -7 150 -10 430 -10 280 0 430 3 430 10 0 7 -150 10
-430 10 -280 0 -430 -3 -430 -10z"/>
<path d="M1843 1020 c-31 -12 -30 -32 1 -24 34 8 37 -4 20 -70 -27 -102 -8
-138 62 -120 21 5 39 14 41 21 3 7 -3 9 -16 6 -31 -8 -36 19 -17 86 20 71 20
76 0 95 -17 17 -56 20 -91 6z"/>
<path d="M2021 1021 c-14 -4 -27 -13 -29 -20 -3 -9 2 -11 17 -6 30 9 36 -14
18 -76 -24 -79 1 -119 73 -119 68 0 121 51 140 135 9 39 8 52 -5 71 -17 26
-44 31 -63 12 -18 -18 -15 -43 8 -63 45 -40 3 -130 -58 -123 -25 3 -27 6 -26
43 1 22 5 60 9 84 7 37 5 46 -10 58 -20 14 -36 15 -74 4z"/>
<path d="M2294 1020 c-31 -12 -44 -35 -16 -28 36 10 41 -12 21 -92 -24 -98
-24 -95 16 -95 39 0 38 -2 56 92 7 41 19 69 35 84 l23 22 -2 -28 c-1 -16 5
-32 15 -38 36 -23 77 50 46 81 -18 18 -42 15 -71 -8 l-26 -21 -21 21 c-21 21
-42 24 -76 10z"/>
<path d="M2591 1013 c-50 -26 -76 -66 -76 -118 0 -61 27 -87 97 -92 41 -3 60
1 86 16 69 44 92 127 49 177 -31 35 -106 44 -156 17z m97 -63 c3 -76 -21 -125
-63 -125 -27 0 -30 3 -33 37 -4 46 13 112 35 133 8 9 25 15 37 13 18 -3 21
-11 24 -58z"/>
<path d="M430 1008 c0 -10 94 -13 435 -13 341 0 435 3 435 13 0 9 -94 12 -435
12 -341 0 -435 -3 -435 -12z"/>
<path d="M186 859 c-26 -20 -26 -22 -26 -148 0 -111 2 -130 18 -144 26 -24 78
-32 97 -17 12 10 19 10 27 2 9 -9 136 -12 470 -12 l458 0 0 25 0 25 -449 0
c-289 0 -452 4 -456 10 -8 14 -58 13 -72 -1 -7 -7 -19 -9 -27 -6 -24 9 -24
225 0 234 8 3 20 1 27 -6 14 -14 64 -15 72 -1 4 6 167 10 456 10 l449 0 0 25
0 25 -458 0 c-343 0 -461 -3 -470 -12 -9 -9 -15 -9 -24 0 -18 18 -62 14 -92
-9z"/>
<path d="M330 780 c0 -7 153 -10 440 -10 287 0 440 3 440 10 0 7 -153 10 -440
10 -287 0 -440 -3 -440 -10z"/>
<path d="M330 710 c0 -7 150 -10 430 -10 280 0 430 3 430 10 0 7 -150 10 -430
10 -280 0 -430 -3 -430 -10z"/>
<path d="M334 651 c-18 -18 48 -21 437 -21 298 0 440 3 437 10 -3 10 -864 21
-874 11z"/>
<path d="M1928 629 c-26 -15 -23 -58 5 -68 45 -17 80 26 47 59 -23 23 -28 24
-52 9z"/>
<path d="M1580 600 c0 -5 7 -10 15 -10 27 0 27 -27 0 -146 -26 -109 -29 -117
-56 -128 -16 -6 -29 -13 -29 -16 0 -3 66 -6 146 -5 l147 0 14 49 c16 55 10 71
-14 36 -36 -51 -51 -60 -104 -60 l-52 0 6 36 c4 20 16 79 28 131 20 89 23 94
50 100 58 11 27 23 -61 23 -53 0 -90 -4 -90 -10z"/>
<path d="M1871 511 c-14 -4 -27 -13 -29 -20 -3 -9 2 -11 18 -6 33 10 40 -11
24 -64 -17 -57 -18 -103 -2 -119 15 -15 63 -16 89 -2 27 15 24 28 -6 22 -31
-5 -32 12 -9 100 14 56 14 62 -2 79 -17 19 -40 22 -83 10z"/>
<path d="M2038 508 c-35 -12 -36 -28 -3 -28 29 0 30 -8 10 -74 -19 -63 -19
-63 10 -91 30 -31 86 -33 132 -5 78 47 104 210 34 210 -41 0 -54 -47 -21 -80
11 -11 20 -31 20 -45 0 -37 -43 -77 -78 -73 -25 3 -27 6 -26 43 1 22 5 59 9
81 6 36 4 43 -16 58 -26 18 -33 19 -71 4z"/>
<path d="M2313 509 c-39 -11 -44 -29 -8 -29 30 0 32 -17 10 -105 -20 -83 -20
-83 20 -82 l35 1 17 78 c11 54 24 84 40 100 l23 22 -6 -31 c-5 -26 -3 -32 16
-38 42 -13 80 51 48 83 -18 18 -42 15 -71 -8 l-26 -21 -21 21 c-22 22 -29 23
-77 9z"/>
<path d="M2611 503 c-51 -27 -76 -66 -76 -120 0 -37 5 -49 28 -69 45 -39 136
-28 177 21 18 22 4 32 -18 12 -28 -26 -76 -32 -95 -12 -27 27 -22 55 11 55 47
1 111 36 118 65 9 36 -13 56 -67 62 -30 3 -55 -2 -78 -14z m75 -29 c7 -29 -15
-57 -55 -69 -23 -7 -24 -6 -17 26 12 63 60 91 72 43z"/>
<path d="M375 499 c-39 -11 -84 -53 -101 -95 -26 -63 -14 -126 34 -178 53 -56
51 -56 562 -56 l470 0 0 25 0 24 -480 3 -480 3 -31 31 c-23 23 -33 44 -36 77
-5 41 -2 48 30 83 l35 39 481 3 481 3 0 24 0 25 -467 -1 c-258 0 -481 -5 -498
-10z"/>
<path d="M430 408 c0 -17 863 -15 868 2 3 7 -137 10 -432 10 -342 0 -436 -3
-436 -12z"/>
<path d="M430 340 c0 -7 150 -10 430 -10 280 0 430 3 430 10 0 7 -150 10 -430
10 -280 0 -430 -3 -430 -10z"/>
<path d="M430 270 c0 -7 154 -10 441 -10 291 0 438 3 434 10 -4 6 -162 10
-441 10 -283 0 -434 -3 -434 -10z"/>
</g>
</svg>
